<?xml version="1.0" encoding="UTF-8" standalone="no"?>
<!DOCTYPE svg PUBLIC "-//W3C//DTD SVG 1.1//EN" "http://www.w3.org/Graphics/SVG/1.1/DTD/svg11.dtd">
<!-- Generated by Microsoft Visio, SVG Export dijagrami_napon_dilatacija_za_razlicite_klase_betona.svg Page-1 -->
<svg xmlns="http://www.w3.org/2000/svg" xmlns:xlink="http://www.w3.org/1999/xlink" xmlns:ev="http://www.w3.org/2001/xml-events"
		xmlns:v="http://schemas.microsoft.com/visio/2003/SVGExtensions/" width="4.6277in" height="4.67459in"
		viewBox="0 0 333.195 336.57" xml:space="preserve" color-interpolation-filters="sRGB" class="st12">
	<v:documentProperties v:langID="1033" v:viewMarkup="false"/>

	<style type="text/css">
	<![CDATA[
		.st1 {visibility:visible}
		.st2 {fill:none;filter:url(#filter_2.6666667461395);stroke:#ffffff;stroke-linecap:round;stroke-linejoin:round;stroke-opacity:0}
		.st3 {stroke:#a5a5a5;stroke-linecap:round;stroke-linejoin:round;stroke-width:1}
		.st4 {fill:none;filter:url(#filter_2.6666667461395);stroke:#ffffff;stroke-opacity:0}
		.st5 {fill:none;stroke:#000000;stroke-width:1}
		.st6 {stroke:#000000;stroke-width:2}
		.st7 {stroke:#000000;stroke-linecap:round;stroke-linejoin:round;stroke-width:2}
		.st8 {fill:none;filter:url(#filter_2.6666667461395);stroke:none}
		.st9 {fill:#ffffff;filter:url(#filter_2.6666667461395);font-family:Calibri;font-size:1.16666em;opacity:0}
		.st10 {fill:none;stroke:none;stroke-width:0.25}
		.st11 {fill:#000000;font-family:Calibri;font-size:1.16666em}
		.st12 {fill:none;fill-rule:evenodd;font-size:12px;overflow:visible;stroke-linecap:square;stroke-miterlimit:3}
	]]>
	</style>

	<defs id="Filters">
		<filter id="filter_2.6666667461395">
			<feGaussianBlur stdDeviation="2.6666667461395"/>
		</filter>
	</defs>
	<g v:mID="0" v:index="1" v:groupContext="foregroundPage">
		<title>Page-1</title>
		<v:pageProperties v:drawingScale="0.0393701" v:pageScale="0.0393701" v:drawingUnits="24" v:shadowOffsetX="8.50394"
				v:shadowOffsetY="-8.50394"/>
		<g id="shape118-1" v:mID="118" v:groupContext="shape" transform="translate(47.3541,-268.944)">
			<title>Sheet.118</title>
			<g id="shadow118-2" v:groupContext="shadow" v:shadowOffsetX="2.44929E-016" v:shadowOffsetY="-4" v:shadowType="1"
					transform="matrix(1,0,0,1,0,4)" class="st1">
				<path d="M0 336.57 L274.25 336.57" class="st2"/>
			</g>
			<path d="M0 336.57 L274.25 336.57" class="st3"/>
		</g>
		<g id="shape119-9" v:mID="119" v:groupContext="shape" transform="translate(47.3541,-213.669)">
			<title>Sheet.119</title>
			<g id="shadow119-10" v:groupContext="shadow" v:shadowOffsetX="2.44929E-016" v:shadowOffsetY="-4" v:shadowType="1"
					transform="matrix(1,0,0,1,0,4)" class="st1">
				<path d="M0 336.57 L274.25 336.57" class="st2"/>
			</g>
			<path d="M0 336.57 L274.25 336.57" class="st3"/>
		</g>
		<g id="shape120-17" v:mID="120" v:groupContext="shape" transform="translate(47.3541,-159.81)">
			<title>Sheet.120</title>
			<g id="shadow120-18" v:groupContext="shadow" v:shadowOffsetX="2.44929E-016" v:shadowOffsetY="-4" v:shadowType="1"
					transform="matrix(1,0,0,1,0,4)" class="st1">
				<path d="M0 336.57 L274.25 336.57" class="st2"/>
			</g>
			<path d="M0 336.57 L274.25 336.57" class="st3"/>
		</g>
		<g id="shape121-25" v:mID="121" v:groupContext="shape" transform="translate(47.3541,-103.117)">
			<title>Sheet.121</title>
			<g id="shadow121-26" v:groupContext="shadow" v:shadowOffsetX="2.44929E-016" v:shadowOffsetY="-4" v:shadowType="1"
					transform="matrix(1,0,0,1,0,4)" class="st1">
				<path d="M0 336.57 L274.25 336.57" class="st2"/>
			</g>
			<path d="M0 336.57 L274.25 336.57" class="st3"/>
		</g>
		<g id="shape122-33" v:mID="122" v:groupContext="shape" transform="translate(454.082,13.7681) rotate(90)">
			<title>Sheet.122</title>
			<g id="shadow122-34" v:groupContext="shadow" v:shadowOffsetX="2.44929E-016" v:shadowOffsetY="-4" v:shadowType="1"
					transform="matrix(1,0,0,1,4,0)" class="st1">
				<path d="M0 336.57 L276.38 336.57" class="st2"/>
			</g>
			<path d="M0 336.57 L276.38 336.57" class="st3"/>
		</g>
		<g id="shape123-41" v:mID="123" v:groupContext="shape" transform="translate(521.546,13.0756) rotate(89.8821)">
			<title>Sheet.123</title>
			<g id="shadow123-42" v:groupContext="shadow" v:shadowOffsetX="2.44929E-016" v:shadowOffsetY="-4" v:shadowType="1"
					transform="matrix(1,4.33681E-019,-4.33681E-019,1,3.99999,0.0082295)" class="st1">
				<path d="M0 336.57 L275.66 336.57" class="st2"/>
			</g>
			<path d="M0 336.57 L275.66 336.57" class="st3"/>
		</g>
		<g id="shape124-49" v:mID="124" v:groupContext="shape" transform="translate(588.728,13.8305) rotate(90.0106)">
			<title>Sheet.124</title>
			<g id="shadow124-50" v:groupContext="shadow" v:shadowOffsetX="2.44929E-016" v:shadowOffsetY="-4" v:shadowType="1"
					transform="matrix(1,0,0,1,4,-0.000741134)" class="st1">
				<path d="M0 336.57 L275.32 336.57" class="st2"/>
			</g>
			<path d="M0 336.57 L275.32 336.57" class="st3"/>
		</g>
		<g id="shape125-57" v:mID="125" v:groupContext="shape" transform="translate(47.3541,-46.4244)">
			<title>Sheet.125</title>
			<g id="shadow125-58" v:groupContext="shadow" v:shadowOffsetX="2.44929E-016" v:shadowOffsetY="-4" v:shadowType="1"
					transform="matrix(1,0,0,1,0,4)" class="st1">
				<path d="M274.25 335.15 L274.25 59.37 L0 59.37 L0 62.32 L0 336.57 L274.25 335.15 Z" class="st4"/>
			</g>
			<path d="M274.25 335.15 L274.25 59.37 L0 59.37 L0 62.32 L0 336.57 L274.25 335.15 Z" class="st5"/>
		</g>
		<g id="shape126-62" v:mID="126" v:groupContext="shape" transform="translate(47.4959,-47.2748)">
			<title>Sheet.126</title>
			<v:textBlock v:margins="rect(4,4,4,4)" v:tabSpace="42.5197"/>
			<g id="shadow126-63" v:groupContext="shadow" v:shadowOffsetX="2.44929E-016" v:shadowOffsetY="-4" v:shadowType="1"
					transform="matrix(1,0,0,1,0,4)" class="st1">
				<path d="M0 336.57 C4.48 331.78 9.75 327.07 15.03 322.96 C16.99 321.44 18.95 320 20.83 318.43 C22.52 317.02 24.14
							 315.51 25.94 314.03 C27.72 312.57 29.69 311.15 31.61 309.81 C38.28 305.17 44.42 301.61 50.17 298.3 C54.43
							 295.75 56.81 294.53 59.39 293.2 C62.16 291.78 65.17 290.25 68.3 288.94 C75.76 285.82 83.92 283.97 92.13
							 282.15 C95.96 281.62 99.5 280.88 103.18 280.16 C105.84 279.64 108.57 279.14 111.38 278.74 C115.28 278.19
							 119.33 277.85 123.38 277.64 C135.63 276.99 147.97 277.47 157.32 278.32 C163.56 278.89 166.18 279.28
							 169.26 279.73 C172.66 280.22 176.6 280.78 180.41 281.3 C184.62 281.86 188.65 282.39 192.63 282.86 C197.37
							 283.42 202.02 283.91 206.92 284.73 C214.03 285.92 221.67 287.81 227.34 288.66 C230.56 289.37 234 290.19
							 237.32 290.85 C247.83 292.94 257.1 293.48 267.73 294.9" class="st4"/>
			</g>
			<path d="M0 336.57 C4.48 331.78 9.75 327.07 15.03 322.96 C16.99 321.44 18.95 320 20.83 318.43 C22.52 317.02 24.14 315.51
						 25.94 314.03 C27.72 312.57 29.69 311.15 31.61 309.81 C38.28 305.17 44.42 301.61 50.17 298.3 C54.43 295.75
						 56.81 294.53 59.39 293.2 C62.16 291.78 65.17 290.25 68.3 288.94 C75.76 285.82 83.92 283.97 92.13 282.15
						 C95.96 281.62 99.5 280.88 103.18 280.16 C105.84 279.64 108.57 279.14 111.38 278.74 C115.28 278.19 119.33
						 277.85 123.38 277.64 C135.63 276.99 147.97 277.47 157.32 278.32 C163.56 278.89 166.18 279.28 169.26 279.73
						 C172.66 280.22 176.6 280.78 180.41 281.3 C184.62 281.86 188.65 282.39 192.63 282.86 C197.37 283.42 202.02
						 283.91 206.92 284.73 C214.03 285.92 221.67 287.81 227.34 288.66 C230.56 289.37 234 290.19 237.32 290.85
						 C247.83 292.94 257.1 293.48 267.73 294.9" class="st6"/>
		</g>
		<g id="shape127-70" v:mID="127" v:groupContext="shape" transform="translate(47.6343,-47.4225)">
			<title>Sheet.127</title>
			<g id="shadow127-71" v:groupContext="shadow" v:shadowOffsetX="2.44929E-016" v:shadowOffsetY="-4" v:shadowType="1"
					transform="matrix(1,0,0,1,0,4)" class="st1">
				<path d="M239.96 295.33 C234.99 291.74 228.95 286.18 223.54 281.29 C219.24 277.4 215.35 273.94 211.34 270.37 C196.64
							 257.26 180.43 242.61 154.92 239.77 C123.74 238.92 100.38 248.88 79.58 260.7 C65.26 268.84 52.15 277.85
							 40.43 288.89 C35.33 293.69 30.49 298.87 25.88 303.68 C22.74 306.96 19.7 310.06 16.34 313.71 C10.66 319.87
							 4.05 327.59 -0 336.57 L10.35 323.68 L24.52 309.51 C34.58 298.27 45.43 291.18 57.12 283.71 C67.11 277.33
							 77.72 270.68 89.72 266.99 C93.7 266.33 97.05 265.02 100.51 263.89 C105.82 262.14 111.41 260.83 117.71
							 260.1 C127.34 258.97 138.63 259.2 148.49 260.07 C166.21 261.64 179.29 265.29 188.93 267.27 C196.87 269.82
							 197.32 269.96 197.78 270.1 C202.38 271.57 207.68 273.96 212.94 276.12 C220.58 279.26 228.1 281.92 235.73
							 285.11 C247.5 290.01 259.52 296.17 268.3 302.14" class="st4"/>
			</g>
			<path d="M239.96 295.33 C234.99 291.74 228.95 286.18 223.54 281.29 C219.24 277.4 215.35 273.94 211.34 270.37 C196.64
						 257.26 180.43 242.61 154.92 239.77 C123.74 238.92 100.38 248.88 79.58 260.7 C65.26 268.84 52.15 277.85 40.43
						 288.89 C35.33 293.69 30.49 298.87 25.88 303.68 C22.74 306.96 19.7 310.06 16.34 313.71 C10.66 319.87 4.05
						 327.59 -0 336.57 L10.35 323.68 L24.52 309.51 C34.58 298.27 45.43 291.18 57.12 283.71 C67.11 277.33 77.72
						 270.68 89.72 266.99 C93.7 266.33 97.05 265.02 100.51 263.89 C105.82 262.14 111.41 260.83 117.71 260.1 C127.34
						 258.97 138.63 259.2 148.49 260.07 C166.21 261.64 179.29 265.29 188.93 267.27 C196.87 269.82 197.32 269.96
						 197.78 270.1 C202.38 271.57 207.68 273.96 212.94 276.12 C220.58 279.26 228.1 281.92 235.73 285.11 C247.5
						 290.01 259.52 296.17 268.3 302.14" class="st6"/>
		</g>
		<g id="shape128-78" v:mID="128" v:groupContext="shape" transform="translate(69.9213,-76.5795)">
			<title>Sheet.128</title>
			<g id="shadow128-79" v:groupContext="shadow" v:shadowOffsetX="2.44929E-016" v:shadowOffsetY="-4" v:shadowType="1"
					transform="matrix(1,0,0,1,0,4)" class="st1">
				<path d="M210.58 307.2 C210.58 307.2 210.25 306.73 209.92 306.28 C205.59 300.29 202.91 297.42 200.02 294.14 C194.98
							 288.39 189.28 281.37 183.36 275.18 C177.37 268.9 171.16 263.48 163.73 257.99 C161.26 256.16 158.66 254.33
							 155.87 252.91 C153.08 251.49 150.09 250.49 146.52 249.91 C141.53 249.11 135.39 249.16 130.35 249.52
							 C127.34 249.74 124.72 250.07 122.21 250.56 C117.28 251.51 112.79 253.06 107.34 254.76 C101.45 257.02
							 101.08 257.15 100.72 257.27 C95.17 259.15 90.52 260.94 86.32 262.98 C78.74 266.67 72.61 271.16 65.17
							 276.12 C60.03 279.54 54.27 283.19 49.01 287.06 C43.41 291.18 38.37 295.55 33.42 300.26 C27.85 305.54
							 22.39 311.24 17.83 315.7 C11.77 321.94 5.66 329.65 0 336.57" class="st4"/>
			</g>
			<path d="M210.58 307.2 C210.58 307.2 210.25 306.73 209.92 306.28 C205.59 300.29 202.91 297.42 200.02 294.14 C194.98 288.39
						 189.28 281.37 183.36 275.18 C177.37 268.9 171.16 263.48 163.73 257.99 C161.26 256.16 158.66 254.33 155.87
						 252.91 C153.08 251.49 150.09 250.49 146.52 249.91 C141.53 249.11 135.39 249.16 130.35 249.52 C127.34 249.74
						 124.72 250.07 122.21 250.56 C117.28 251.51 112.79 253.06 107.34 254.76 C101.45 257.02 101.08 257.15 100.72
						 257.27 C95.17 259.15 90.52 260.94 86.32 262.98 C78.74 266.67 72.61 271.16 65.17 276.12 C60.03 279.54 54.27
						 283.19 49.01 287.06 C43.41 291.18 38.37 295.55 33.42 300.26 C27.85 305.54 22.39 311.24 17.83 315.7 C11.77
						 321.94 5.66 329.65 0 336.57" class="st6"/>
		</g>
		<g id="shape129-86" v:mID="129" v:groupContext="shape" transform="translate(58.4147,-63.9779)">
			<title>Sheet.129</title>
			<g id="shadow129-87" v:groupContext="shadow" v:shadowOffsetX="2.44929E-016" v:shadowOffsetY="-4" v:shadowType="1"
					transform="matrix(1,0,0,1,0,4)" class="st1">
				<path d="M0 336.57 C0.3 335.86 0.53 335.44 0.79 334.99 C5.32 327.18 16.52 311.5 22 303.65 C26.91 296.64 27.26 295.88
							 30.5 292.05 C36.86 284.55 54.32 265.28 68.33 250.54 C81.12 237.07 91.04 227.39 104 218.61 C111.59 213.48
							 120.22 208.66 130.67 204.74 C136.02 202.74 141.85 200.97 147.29 200.11 C159.42 198.19 169.65 200.77
							 176.45 205.87 C180.99 209.56 183.5 212.04 185.88 214.96 C192.83 223.48 198.7 235.75 203.66 249.24"
						class="st4"/>
			</g>
			<path d="M0 336.57 C0.3 335.86 0.53 335.44 0.79 334.99 C5.32 327.18 16.52 311.5 22 303.65 C26.91 296.64 27.26 295.88
						 30.5 292.05 C36.86 284.55 54.32 265.28 68.33 250.54 C81.12 237.07 91.04 227.39 104 218.61 C111.59 213.48
						 120.22 208.66 130.67 204.74 C136.02 202.74 141.85 200.97 147.29 200.11 C159.42 198.19 169.65 200.77 176.45
						 205.87 C180.99 209.56 183.5 212.04 185.88 214.96 C192.83 223.48 198.7 235.75 203.66 249.24" class="st6"/>
		</g>
		<g id="shape130-94" v:mID="130" v:groupContext="shape" transform="translate(60.905,-68.3645)">
			<title>Sheet.130</title>
			<g id="shadow130-95" v:groupContext="shadow" v:shadowOffsetX="2.44929E-016" v:shadowOffsetY="-4" v:shadowType="1"
					transform="matrix(1,0,0,1,0,4)" class="st1">
				<path d="M0 336.57 L22.59 300.4 C27.03 294.42 30.45 288.47 34.78 281.98 C38.51 277.84 41.65 274.31 44.7 270.21 C46.76
							 267.45 48.77 264.43 50.94 261.71 C53.47 258.54 56.21 255.77 58.87 252.78 C67.06 243.58 74.53 232.21
							 82.12 225.28 C86.47 220.41 91.52 216.19 96.58 211.39 C100.83 207.36 105.09 202.93 109.33 198.92 C112.88
							 195.56 116.42 192.5 120.1 189.57 C126.12 184.78 132.54 180.31 139.66 176.53 C143.76 174.35 148.08 172.4
							 152.42 170.57 C159.11 167.76 165.84 165.26 175.66 167.17 C180.26 168.42 184.59 170.58 187.99 173.41
							 C191.61 176.41 194.2 180.16 196.68 184.32 C198.23 186.94 199.75 189.71 201.01 192.4 C202.97 196.61 204.3
							 200.64 205.91 205.46 C207.03 208.82 208.28 212.57 209.17 216.06 C210.61 221.72 211.09 226.7 212.51 233.79"
						class="st4"/>
			</g>
			<path d="M0 336.57 L22.59 300.4 C27.03 294.42 30.45 288.47 34.78 281.98 C38.51 277.84 41.65 274.31 44.7 270.21 C46.76
						 267.45 48.77 264.43 50.94 261.71 C53.47 258.54 56.21 255.77 58.87 252.78 C67.06 243.58 74.53 232.21 82.12
						 225.28 C86.47 220.41 91.52 216.19 96.58 211.39 C100.83 207.36 105.09 202.93 109.33 198.92 C112.88 195.56
						 116.42 192.5 120.1 189.57 C126.12 184.78 132.54 180.31 139.66 176.53 C143.76 174.35 148.08 172.4 152.42
						 170.57 C159.11 167.76 165.84 165.26 175.66 167.17 C180.26 168.42 184.59 170.58 187.99 173.41 C191.61 176.41
						 194.2 180.16 196.68 184.32 C198.23 186.94 199.75 189.71 201.01 192.4 C202.97 196.61 204.3 200.64 205.91
						 205.46 C207.03 208.82 208.28 212.57 209.17 216.06 C210.61 221.72 211.09 226.7 212.51 233.79" class="st6"/>
		</g>
		<g id="shape131-102" v:mID="131" v:groupContext="shape" transform="translate(-62.1802,-83.8855) rotate(-28.0538)">
			<title>Sheet.131</title>
			<g id="shadow131-103" v:groupContext="shadow" v:shadowOffsetX="2.44929E-016" v:shadowOffsetY="-4" v:shadowType="1"
					transform="matrix(1,0,0,1,-1.8812,3.53003)" class="st1">
				<path d="M0 336.57 C9.28 331.59 9.63 331.37 9.97 331.16 C19.35 325.37 26.96 321.88 38.67 315.61 C45.86 311.77 54.59
							 306.89 62.88 302.73 C75.65 296.34 87.38 291.68 99.99 287.02 C110.11 283.29 120.8 279.55 130.49 276.51
							 C141.46 273.07 151.14 270.52 164.59 268.45 C172.99 267.17 182.85 266.07 191.72 267.93 C197.36 269.11
							 202.6 271.48 206.43 274.87 C210.31 278.29 212.75 282.75 214 287.45 C218 302.49 209.78 319.93 201.71
							 336.57" class="st2"/>
			</g>
			<path d="M0 336.57 C9.28 331.59 9.63 331.37 9.97 331.16 C19.35 325.37 26.96 321.88 38.67 315.61 C45.86 311.77 54.59 306.89
						 62.88 302.73 C75.65 296.34 87.38 291.68 99.99 287.02 C110.11 283.29 120.8 279.55 130.49 276.51 C141.46 273.07
						 151.14 270.52 164.59 268.45 C172.99 267.17 182.85 266.07 191.72 267.93 C197.36 269.11 202.6 271.48 206.43
						 274.87 C210.31 278.29 212.75 282.75 214 287.45 C218 302.49 209.78 319.93 201.71 336.57" class="st7"/>
		</g>
		<g id="shape132-110" v:mID="132" v:groupContext="shape" transform="translate(23.9683,-93.1961)">
			<title>Sheet.132</title>
			<desc>20</desc>
			<v:textBlock v:margins="rect(4,4,4,4)" v:tabSpace="42.5197"/>
			<v:textRect cx="11.3386" cy="326.08" width="22.68" height="20.9807"/>
			<g id="shadow132-111" v:groupContext="shadow" v:shadowOffsetX="2.44929E-016" v:shadowOffsetY="-4" v:shadowType="1"
					transform="matrix(1,0,0,1,0,4)" class="st1">
				<rect x="0" y="315.59" width="22.6772" height="20.9807" class="st8"/>
				<text x="4.49" y="330.28" class="st9" v:langID="1033"><v:paragraph v:horizAlign="2"/><v:tabList/>20</text>			</g>
			<rect x="0" y="315.59" width="22.6772" height="20.9807" class="st10"/>
			<text x="4.49" y="330.28" class="st11" v:langID="1033"><v:paragraph v:horizAlign="2"/><v:tabList/>20</text>		</g>
		<g id="shape133-118" v:mID="133" v:groupContext="shape" transform="translate(23.9683,-36.5032)">
			<title>Sheet.133</title>
			<desc>0</desc>
			<v:textBlock v:margins="rect(4,4,4,4)" v:tabSpace="42.5197"/>
			<v:textRect cx="11.3386" cy="326.08" width="22.68" height="20.9807"/>
			<g id="shadow133-119" v:groupContext="shadow" v:shadowOffsetX="2.44929E-016" v:shadowOffsetY="-4" v:shadowType="1"
					transform="matrix(1,0,0,1,0,4)" class="st1">
				<rect x="0" y="315.59" width="22.6772" height="20.9807" class="st8"/>
				<text x="11.58" y="330.28" class="st9" v:langID="1033"><v:paragraph v:horizAlign="2"/><v:tabList/>0</text>			</g>
			<rect x="0" y="315.59" width="22.6772" height="20.9807" class="st10"/>
			<text x="11.58" y="330.28" class="st11" v:langID="1033"><v:paragraph v:horizAlign="2"/><v:tabList/>0</text>		</g>
		<g id="shape134-126" v:mID="134" v:groupContext="shape" transform="translate(23.9683,-149.889)">
			<title>Sheet.134</title>
			<desc>40</desc>
			<v:textBlock v:margins="rect(4,4,4,4)" v:tabSpace="42.5197"/>
			<v:textRect cx="11.3386" cy="326.08" width="22.68" height="20.9807"/>
			<g id="shadow134-127" v:groupContext="shadow" v:shadowOffsetX="2.44929E-016" v:shadowOffsetY="-4" v:shadowType="1"
					transform="matrix(1,0,0,1,0,4)" class="st1">
				<rect x="0" y="315.59" width="22.6772" height="20.9807" class="st8"/>
				<text x="4.49" y="330.28" class="st9" v:langID="1033"><v:paragraph v:horizAlign="2"/><v:tabList/>40</text>			</g>
			<rect x="0" y="315.59" width="22.6772" height="20.9807" class="st10"/>
			<text x="4.49" y="330.28" class="st11" v:langID="1033"><v:paragraph v:horizAlign="2"/><v:tabList/>40</text>		</g>
		<g id="shape135-134" v:mID="135" v:groupContext="shape" transform="translate(23.9683,-258.454)">
			<title>Sheet.135</title>
			<desc>80</desc>
			<v:textBlock v:margins="rect(4,4,4,4)" v:tabSpace="42.5197"/>
			<v:textRect cx="11.3386" cy="326.08" width="22.68" height="20.9807"/>
			<g id="shadow135-135" v:groupContext="shadow" v:shadowOffsetX="2.44929E-016" v:shadowOffsetY="-4" v:shadowType="1"
					transform="matrix(1,0,0,1,0,4)" class="st1">
				<rect x="0" y="315.59" width="22.6772" height="20.9807" class="st8"/>
				<text x="4.49" y="330.28" class="st9" v:langID="1033"><v:paragraph v:horizAlign="2"/><v:tabList/>80</text>			</g>
			<rect x="0" y="315.59" width="22.6772" height="20.9807" class="st10"/>
			<text x="4.49" y="330.28" class="st11" v:langID="1033"><v:paragraph v:horizAlign="2"/><v:tabList/>80</text>		</g>
		<g id="shape136-142" v:mID="136" v:groupContext="shape" transform="translate(23.9683,-202.609)">
			<title>Sheet.136</title>
			<desc>60</desc>
			<v:textBlock v:margins="rect(4,4,4,4)" v:tabSpace="42.5197"/>
			<v:textRect cx="11.3386" cy="326.08" width="22.68" height="20.9807"/>
			<g id="shadow136-143" v:groupContext="shadow" v:shadowOffsetX="2.44929E-016" v:shadowOffsetY="-4" v:shadowType="1"
					transform="matrix(1,0,0,1,0,4)" class="st1">
				<rect x="0" y="315.59" width="22.6772" height="20.9807" class="st8"/>
				<text x="4.49" y="330.28" class="st9" v:langID="1033"><v:paragraph v:horizAlign="2"/><v:tabList/>60</text>			</g>
			<rect x="0" y="315.59" width="22.6772" height="20.9807" class="st10"/>
			<text x="4.49" y="330.28" class="st11" v:langID="1033"><v:paragraph v:horizAlign="2"/><v:tabList/>60</text>		</g>
		<g id="shape137-150" v:mID="137" v:groupContext="shape" transform="translate(15.4644,-313.45)">
			<title>Sheet.137</title>
			<desc>100</desc>
			<v:textBlock v:margins="rect(4,4,4,4)" v:tabSpace="42.5197"/>
			<v:textRect cx="15.5906" cy="326.08" width="31.19" height="20.9807"/>
			<g id="shadow137-151" v:groupContext="shadow" v:shadowOffsetX="2.44929E-016" v:shadowOffsetY="-4" v:shadowType="1"
					transform="matrix(1,0,0,1,0,4)" class="st1">
				<rect x="0" y="315.59" width="31.1811" height="20.9807" class="st8"/>
				<text x="5.89" y="330.28" class="st9" v:langID="1033"><v:paragraph v:horizAlign="2"/><v:tabList/>100</text>			</g>
			<rect x="0" y="315.59" width="31.1811" height="20.9807" class="st10"/>
			<text x="5.89" y="330.28" class="st11" v:langID="1033"><v:paragraph v:horizAlign="2"/><v:tabList/>100</text>		</g>
		<g id="shape138-158" v:mID="138" v:groupContext="shape" transform="translate(35.7321,-25.4459)">
			<title>Sheet.138</title>
			<desc>0</desc>
			<v:textBlock v:margins="rect(4,4,4,4)" v:tabSpace="42.5197"/>
			<v:textRect cx="11.3386" cy="326.08" width="22.68" height="20.9807"/>
			<g id="shadow138-159" v:groupContext="shadow" v:shadowOffsetX="2.44929E-016" v:shadowOffsetY="-4" v:shadowType="1"
					transform="matrix(1,0,0,1,0,4)" class="st1">
				<rect x="0" y="315.59" width="22.6772" height="20.9807" class="st8"/>
				<text x="7.79" y="330.28" class="st9" v:langID="1033"><v:paragraph v:horizAlign="1"/><v:tabList/>0</text>			</g>
			<rect x="0" y="315.59" width="22.6772" height="20.9807" class="st10"/>
			<text x="7.79" y="330.28" class="st11" v:langID="1033"><v:paragraph v:horizAlign="1"/><v:tabList/>0</text>		</g>
		<g id="shape139-166" v:mID="139" v:groupContext="shape" transform="translate(106.173,-26.0128)">
			<title>Sheet.139</title>
			<desc>1</desc>
			<v:textBlock v:margins="rect(4,4,4,4)" v:tabSpace="42.5197"/>
			<v:textRect cx="11.3386" cy="326.08" width="22.68" height="20.9807"/>
			<g id="shadow139-167" v:groupContext="shadow" v:shadowOffsetX="2.44929E-016" v:shadowOffsetY="-4" v:shadowType="1"
					transform="matrix(1,0,0,1,0,4)" class="st1">
				<rect x="0" y="315.59" width="22.6772" height="20.9807" class="st8"/>
				<text x="7.79" y="330.28" class="st9" v:langID="1033"><v:paragraph v:horizAlign="1"/><v:tabList/>1</text>			</g>
			<rect x="0" y="315.59" width="22.6772" height="20.9807" class="st10"/>
			<text x="7.79" y="330.28" class="st11" v:langID="1033"><v:paragraph v:horizAlign="1"/><v:tabList/>1</text>		</g>
		<g id="shape140-174" v:mID="140" v:groupContext="shape" transform="translate(173.142,-26.0128)">
			<title>Sheet.140</title>
			<desc>2</desc>
			<v:textBlock v:margins="rect(4,4,4,4)" v:tabSpace="42.5197"/>
			<v:textRect cx="11.3386" cy="326.08" width="22.68" height="20.9807"/>
			<g id="shadow140-175" v:groupContext="shadow" v:shadowOffsetX="2.44929E-016" v:shadowOffsetY="-4" v:shadowType="1"
					transform="matrix(1,0,0,1,0,4)" class="st1">
				<rect x="0" y="315.59" width="22.6772" height="20.9807" class="st8"/>
				<text x="7.79" y="330.28" class="st9" v:langID="1033"><v:paragraph v:horizAlign="1"/><v:tabList/>2</text>			</g>
			<rect x="0" y="315.59" width="22.6772" height="20.9807" class="st10"/>
			<text x="7.79" y="330.28" class="st11" v:langID="1033"><v:paragraph v:horizAlign="1"/><v:tabList/>2</text>		</g>
		<g id="shape141-182" v:mID="141" v:groupContext="shape" transform="translate(240.11,-26.8611)">
			<title>Sheet.141</title>
			<desc>3</desc>
			<v:textBlock v:margins="rect(4,4,4,4)" v:tabSpace="42.5197"/>
			<v:textRect cx="11.3386" cy="326.08" width="22.68" height="20.9807"/>
			<g id="shadow141-183" v:groupContext="shadow" v:shadowOffsetX="2.44929E-016" v:shadowOffsetY="-4" v:shadowType="1"
					transform="matrix(1,0,0,1,0,4)" class="st1">
				<rect x="0" y="315.59" width="22.6772" height="20.9807" class="st8"/>
				<text x="7.79" y="330.28" class="st9" v:langID="1033"><v:paragraph v:horizAlign="1"/><v:tabList/>3</text>			</g>
			<rect x="0" y="315.59" width="22.6772" height="20.9807" class="st10"/>
			<text x="7.79" y="330.28" class="st11" v:langID="1033"><v:paragraph v:horizAlign="1"/><v:tabList/>3</text>		</g>
		<g id="shape142-190" v:mID="142" v:groupContext="shape" transform="translate(310.268,-26.0128)">
			<title>Sheet.142</title>
			<desc>4</desc>
			<v:textBlock v:margins="rect(4,4,4,4)" v:tabSpace="42.5197"/>
			<v:textRect cx="11.3386" cy="326.08" width="22.68" height="20.9807"/>
			<g id="shadow142-191" v:groupContext="shadow" v:shadowOffsetX="2.44929E-016" v:shadowOffsetY="-4" v:shadowType="1"
					transform="matrix(1,0,0,1,0,4)" class="st1">
				<rect x="0" y="315.59" width="22.6772" height="20.9807" class="st8"/>
				<text x="7.79" y="330.28" class="st9" v:langID="1033"><v:paragraph v:horizAlign="1"/><v:tabList/>4</text>			</g>
			<rect x="0" y="315.59" width="22.6772" height="20.9807" class="st10"/>
			<text x="7.79" y="330.28" class="st11" v:langID="1033"><v:paragraph v:horizAlign="1"/><v:tabList/>4</text>		</g>
		<g id="shape143-198" v:mID="143" v:groupContext="shape" transform="translate(133.102,-3.62129)">
			<title>Sheet.143</title>
			<desc>Dilatacija [‰]</desc>
			<v:textBlock v:margins="rect(4,4,4,4)" v:tabSpace="42.5197"/>
			<v:textRect cx="52.4409" cy="325.232" width="104.89" height="22.6772"/>
			<g id="shadow143-199" v:groupContext="shadow" v:shadowOffsetX="2.44929E-016" v:shadowOffsetY="-4" v:shadowType="1"
					transform="matrix(1,0,0,1,0,4)" class="st1">
				<rect x="0" y="313.893" width="104.882" height="22.6772" class="st8"/>
				<text x="13.13" y="329.43" class="st9" v:langID="1033"><v:paragraph v:horizAlign="1"/><v:tabList/>Dilatacija [‰]</text>			</g>
			<rect x="0" y="313.893" width="104.882" height="22.6772" class="st10"/>
			<text x="13.13" y="329.43" class="st11" v:langID="1033"><v:paragraph v:horizAlign="1"/><v:tabList/>Dilatacija [‰]</text>		</g>
		<g id="shape144-206" v:mID="144" v:groupContext="shape" transform="translate(-312.602,195.605) rotate(-90)">
			<title>Sheet.144</title>
			<desc>Napon [MPa]</desc>
			<v:textBlock v:margins="rect(4,4,4,4)" v:tabSpace="42.5197"/>
			<v:textRect cx="48.3986" cy="325.232" width="96.8" height="22.6772"/>
			<g id="shadow144-207" v:groupContext="shadow" v:shadowOffsetX="2.44929E-016" v:shadowOffsetY="-4" v:shadowType="1"
					transform="matrix(1,0,0,1,-4,0)" class="st1">
				<rect x="0" y="313.893" width="96.7972" height="22.6772" class="st8"/>
				<text x="10.65" y="329.43" class="st9" v:langID="1033"><v:paragraph v:horizAlign="1"/><v:tabList/>Napon [MPa]</text>			</g>
			<rect x="0" y="313.893" width="96.7972" height="22.6772" class="st10"/>
			<text x="10.65" y="329.43" class="st11" v:langID="1033"><v:paragraph v:horizAlign="1"/><v:tabList/>Napon [MPa]</text>		</g>
	</g>
</svg>
