<?xml version="1.0" encoding="UTF-8" standalone="no"?>
<!DOCTYPE svg PUBLIC "-//W3C//DTD SVG 1.1//EN" "http://www.w3.org/Graphics/SVG/1.1/DTD/svg11.dtd">
<!-- Generated by Microsoft Visio, SVG Export sematski_prikaz_dijagrama_napon-dilatacija_za_beton.svg Page-1 -->
<svg xmlns="http://www.w3.org/2000/svg" xmlns:xlink="http://www.w3.org/1999/xlink" xmlns:ev="http://www.w3.org/2001/xml-events"
		xmlns:v="http://schemas.microsoft.com/visio/2003/SVGExtensions/" width="4.31891in" height="3.59139in"
		viewBox="0 0 310.962 258.58" xml:space="preserve" color-interpolation-filters="sRGB" class="st28">
	<v:documentProperties v:langID="1033" v:viewMarkup="false"/>

	<style type="text/css">
	<![CDATA[
		.st1 {visibility:visible}
		.st2 {fill:none;filter:url(#filter_2.6666667461395);marker-end:url(#mrkr4-11);marker-start:url(#mrkr4-9);stroke:#ffffff;stroke-opacity:0}
		.st3 {fill:#ffffff;fill-opacity:0;stroke:#ffffff;stroke-opacity:0;stroke-width:0.22935779816514}
		.st4 {marker-end:url(#mrkr4-20);marker-start:url(#mrkr4-18);stroke:#000000;stroke-width:0.75}
		.st5 {fill:#000000;fill-opacity:1;stroke:#000000;stroke-opacity:1;stroke-width:0.22935779816514}
		.st6 {fill:none;filter:url(#filter_2.6666667461395);stroke:#ffffff;stroke-linecap:round;stroke-linejoin:round;stroke-opacity:0}
		.st7 {stroke:#000000;stroke-linecap:round;stroke-linejoin:round;stroke-width:2}
		.st8 {stroke:#000000;stroke-linecap:round;stroke-linejoin:round;stroke-width:1}
		.st9 {fill:none;filter:url(#filter_2.6666667461395);stroke:#ffffff;stroke-dasharray:3,3;stroke-opacity:0}
		.st10 {stroke:#000000;stroke-dasharray:3,3;stroke-width:1}
		.st11 {fill:none;filter:url(#filter_2.6666667461395);stroke:#ffffff;stroke-dasharray:3,3;stroke-linecap:round;stroke-linejoin:round;stroke-opacity:0}
		.st12 {stroke:#000000;stroke-dasharray:3,3;stroke-linecap:round;stroke-linejoin:round;stroke-width:1}
		.st13 {fill:none;filter:url(#filter_2.6666667461395);marker-end:url(#mrkr5-71);marker-start:url(#mrkr5-69);stroke:#ffffff;stroke-linecap:round;stroke-linejoin:round;stroke-opacity:0}
		.st14 {fill:#ffffff;fill-opacity:0;stroke:#ffffff;stroke-opacity:0;stroke-width:0.28409090909091}
		.st15 {marker-end:url(#mrkr5-80);marker-start:url(#mrkr5-78);stroke:#000000;stroke-linecap:round;stroke-linejoin:round;stroke-width:1}
		.st16 {fill:#000000;fill-opacity:1;stroke:#000000;stroke-opacity:1;stroke-width:0.28409090909091}
		.st17 {fill:none;filter:url(#filter_2.6666667461395);stroke:none}
		.st18 {fill:#ffffff;filter:url(#filter_2.6666667461395);font-family:Calibri;font-size:1.16666em;opacity:0}
		.st19 {font-size:1em;font-style:italic}
		.st20 {baseline-shift:-32.4943%;font-size:0.649886em;font-style:italic}
		.st21 {fill:none;stroke:none;stroke-width:0.25}
		.st22 {fill:#000000;font-family:Calibri;font-size:1.16666em}
		.st23 {fill:#ffffff;filter:url(#filter_2.6666667461395);font-family:Calibri;font-size:1.16666em;font-style:italic;opacity:0}
		.st24 {fill:#000000;font-family:Calibri;font-size:1.16666em;font-style:italic}
		.st25 {baseline-shift:-32.4943%;font-size:0.649886em}
		.st26 {fill:#ffffff;fill-opacity:0;filter:url(#filter_2.6666667461395);stroke:#ffffff;stroke-opacity:0}
		.st27 {fill:#feffff;stroke:#000000;stroke-width:0.25}
		.st28 {fill:none;fill-rule:evenodd;font-size:12px;overflow:visible;stroke-linecap:square;stroke-miterlimit:3}
	]]>
	</style>

	<defs id="Markers">
		<g id="lend4">
			<path d="M 2 1 L 0 0 L 2 -1 L 2 1 " style="stroke:none"/>
		</g>
		<marker id="mrkr4-9" class="st3" v:arrowType="4" v:arrowSize="2" v:setback="8.24" refX="8.24" orient="auto"
				markerUnits="strokeWidth" overflow="visible">
			<use xlink:href="#lend4" transform="scale(4.36) "/>
		</marker>
		<marker id="mrkr4-11" class="st3" v:arrowType="4" v:arrowSize="2" v:setback="8.72" refX="-8.72" orient="auto"
				markerUnits="strokeWidth" overflow="visible">
			<use xlink:href="#lend4" transform="scale(-4.36,-4.36) "/>
		</marker>
		<marker id="mrkr4-18" class="st5" v:arrowType="4" v:arrowSize="2" v:setback="8.24" refX="8.24" orient="auto"
				markerUnits="strokeWidth" overflow="visible">
			<use xlink:href="#lend4" transform="scale(4.36) "/>
		</marker>
		<marker id="mrkr4-20" class="st5" v:arrowType="4" v:arrowSize="2" v:setback="8.72" refX="-8.72" orient="auto"
				markerUnits="strokeWidth" overflow="visible">
			<use xlink:href="#lend4" transform="scale(-4.36,-4.36) "/>
		</marker>
		<g id="lend5">
			<path d="M 2 1 L 0 0 L 1.98117 -0.993387 C 1.67173 -0.364515 1.67301 0.372641 1.98465 1.00043 " style="stroke:none"/>
		</g>
		<marker id="mrkr5-69" class="st14" v:arrowType="5" v:arrowSize="2" v:setback="5.8" refX="5.8" orient="auto"
				markerUnits="strokeWidth" overflow="visible">
			<use xlink:href="#lend5" transform="scale(3.52) "/>
		</marker>
		<marker id="mrkr5-71" class="st14" v:arrowType="5" v:arrowSize="2" v:setback="5.8" refX="-5.8" orient="auto"
				markerUnits="strokeWidth" overflow="visible">
			<use xlink:href="#lend5" transform="scale(-3.52,-3.52) "/>
		</marker>
		<marker id="mrkr5-78" class="st16" v:arrowType="5" v:arrowSize="2" v:setback="5.8" refX="5.8" orient="auto"
				markerUnits="strokeWidth" overflow="visible">
			<use xlink:href="#lend5" transform="scale(3.52) "/>
		</marker>
		<marker id="mrkr5-80" class="st16" v:arrowType="5" v:arrowSize="2" v:setback="5.8" refX="-5.8" orient="auto"
				markerUnits="strokeWidth" overflow="visible">
			<use xlink:href="#lend5" transform="scale(-3.52,-3.52) "/>
		</marker>
	</defs>
	<defs id="Filters">
		<filter id="filter_2.6666667461395">
			<feGaussianBlur stdDeviation="2.6666667461395"/>
		</filter>
	</defs>
	<g v:mID="0" v:index="1" v:groupContext="foregroundPage">
		<title>Page-1</title>
		<v:pageProperties v:drawingScale="0.0393701" v:pageScale="0.0393701" v:drawingUnits="24" v:shadowOffsetX="8.50394"
				v:shadowOffsetY="-8.50394"/>
		<g id="shape168-1" v:mID="168" v:groupContext="shape" transform="translate(47.4908,-24.3593)">
			<title>Sheet.168</title>
			<g id="shadow168-2" v:groupContext="shadow" v:shadowOffsetX="2.44929E-016" v:shadowOffsetY="-4" v:shadowType="1"
					transform="matrix(1,0,0,1,0,4)" class="st1">
				<path d="M0 37.85 L0 38.21 L0 258.58 L246.49 258.58" class="st2"/>
			</g>
			<path d="M0 37.85 L0 38.21 L0 258.58 L246.49 258.58" class="st4"/>
		</g>
		<g id="shape169-21" v:mID="169" v:groupContext="shape" transform="translate(345.195,231.251) rotate(142.306)">
			<title>Sheet.169</title>
			<g id="shadow169-22" v:groupContext="shadow" v:shadowOffsetX="2.44929E-016" v:shadowOffsetY="-4" v:shadowType="1"
					transform="matrix(1,-5.55112E-017,5.55112E-017,1,2.44579,-3.16514)" class="st1">
				<path d="M0 180.91 C3.93 219.41 24.36 236.74 43.02 246.83 C70.85 261.9 94.75 260.87 120.72 253.51 C138.18 248.56
							 156.58 240.75 176.51 227.72 C196.29 214.79 217.57 196.72 236.43 180.91" class="st6"/>
			</g>
			<path d="M0 180.91 C3.93 219.41 24.36 236.74 43.02 246.83 C70.85 261.9 94.75 260.87 120.72 253.51 C138.18 248.56 156.58
						 240.75 176.51 227.72 C196.29 214.79 217.57 196.72 236.43 180.91" class="st7"/>
		</g>
		<g id="shape170-29" v:mID="170" v:groupContext="shape" transform="translate(341.989,147.552) rotate(106.215)">
			<title>Sheet.170</title>
			<g id="shadow170-30" v:groupContext="shadow" v:shadowOffsetX="2.44929E-016" v:shadowOffsetY="-4" v:shadowType="1"
					transform="matrix(1,-5.55112E-017,5.55112E-017,1,3.84087,-1.117)" class="st1">
				<path d="M0 258.58 L165.46 258.58" class="st6"/>
			</g>
			<path d="M0 258.58 L165.46 258.58" class="st8"/>
		</g>
		<g id="shape171-37" v:mID="171" v:groupContext="shape" transform="translate(47.4908,-24.3593)">
			<title>Sheet.171</title>
			<g id="shadow171-38" v:groupContext="shadow" v:shadowOffsetX="2.44929E-016" v:shadowOffsetY="-4" v:shadowType="1"
					transform="matrix(1,0,0,1,0,4)" class="st1">
				<path d="M135.39 258.58 L135.39 85.54 L0 85.54" class="st9"/>
			</g>
			<path d="M135.39 258.58 L135.39 85.54 L0 85.54" class="st10"/>
		</g>
		<g id="shape172-45" v:mID="172" v:groupContext="shape" transform="translate(493.157,88.0993) rotate(90)">
			<title>Sheet.172</title>
			<g id="shadow172-46" v:groupContext="shadow" v:shadowOffsetX="2.44929E-016" v:shadowOffsetY="-4" v:shadowType="1"
					transform="matrix(1,0,0,1,4,0)" class="st1">
				<path d="M0 258.58 L146.12 258.58" class="st11"/>
			</g>
			<path d="M0 258.58 L146.12 258.58" class="st12"/>
		</g>
		<g id="shape173-53" v:mID="173" v:groupContext="shape" transform="translate(75.885,395.166) rotate(180)">
			<title>Sheet.173</title>
			<g id="shadow173-54" v:groupContext="shadow" v:shadowOffsetX="2.44929E-016" v:shadowOffsetY="-4" v:shadowType="1"
					transform="matrix(1,0,0,1,0,-4)" class="st1">
				<path d="M0 258.58 L28.39 258.58" class="st11"/>
			</g>
			<path d="M0 258.58 L28.39 258.58" class="st12"/>
		</g>
		<g id="shape174-61" v:mID="174" v:groupContext="shape" transform="translate(287.6,43.3602) rotate(59.4912)">
			<title>Sheet.174</title>
			<g id="shadow174-62" v:groupContext="shadow" v:shadowOffsetX="2.44929E-016" v:shadowOffsetY="-4" v:shadowType="1"
					transform="matrix(1,0,0,1,3.44621,2.03068)" class="st1">
				<path d="M3.84 254.24 L4.08 253.97 C4.76 253.22 5.45 252.49 6.14 251.81 C8.14 249.84 10.16 248.29 12.38 247.06 C15.01
							 245.6 17.91 244.6 20.82 243.89 C35.37 240.34 50.09 244.12 64.35 254.73 L64.64 254.95" class="st13"/>
			</g>
			<path d="M3.84 254.24 L4.08 253.97 C4.76 253.22 5.45 252.49 6.14 251.81 C8.14 249.84 10.16 248.29 12.38 247.06 C15.01
						 245.6 17.91 244.6 20.82 243.89 C35.37 240.34 50.09 244.12 64.35 254.73 L64.64 254.95" class="st15"/>
		</g>
		<g id="shape175-81" v:mID="175" v:groupContext="shape" transform="translate(52.9171,-79.5291)">
			<title>Sheet.175</title>
			<desc>tanα = Ecm</desc>
			<v:textBlock v:margins="rect(4,4,4,4)" v:tabSpace="42.5197"/>
			<v:textRect cx="54.4252" cy="244.33" width="108.86" height="28.5003"/>
			<g id="shadow175-82" v:groupContext="shadow" v:shadowOffsetX="2.44929E-016" v:shadowOffsetY="-4" v:shadowType="1"
					transform="matrix(1,0,0,1,0,4)" class="st1">
				<rect x="0" y="230.08" width="108.85" height="28.5003" class="st17"/>
				<text x="25.54" y="248.53" class="st18" v:langID="1033"><v:paragraph v:horizAlign="1"/><v:tabList/>tan<tspan
							class="st19">α </tspan><tspan class="st19">= </tspan><tspan class="st19">E</tspan><tspan dy="-0.284em"
							class="st20" v:baseFontSize="14">cm</tspan> </text>			</g>
			<rect x="0" y="230.08" width="108.85" height="28.5003" class="st21"/>
			<text x="25.54" y="248.53" class="st22" v:langID="1033"><v:paragraph v:horizAlign="1"/><v:tabList/>tan<tspan
						class="st19">α </tspan><tspan class="st19">= </tspan><tspan class="st19">E</tspan><tspan dy="-0.284em"
						class="st20" v:baseFontSize="14">cm</tspan> </text>		</g>
		<g id="shape178-97" v:mID="178" v:groupContext="shape" transform="translate(71.8991,-46.1207)">
			<title>Sheet.178</title>
			<desc>α</desc>
			<v:textBlock v:margins="rect(4,4,4,4)" v:tabSpace="42.5197"/>
			<v:textRect cx="14.5984" cy="248.23" width="29.2" height="20.7008"/>
			<g id="shadow178-98" v:groupContext="shadow" v:shadowOffsetX="2.44929E-016" v:shadowOffsetY="-4" v:shadowType="1"
					transform="matrix(1,0,0,1,0,4)" class="st1">
				<rect x="0" y="237.879" width="29.1969" height="20.7008" class="st17"/>
				<text x="10.64" y="252.43" class="st23" v:langID="1033"><v:paragraph v:horizAlign="1"/><v:tabList/>α</text>			</g>
			<rect x="0" y="237.879" width="29.1969" height="20.7008" class="st21"/>
			<text x="10.64" y="252.43" class="st24" v:langID="1033"><v:paragraph v:horizAlign="1"/><v:tabList/>α</text>		</g>
		<g id="shape179-105" v:mID="179" v:groupContext="shape" transform="translate(288.507,-7.58979)">
			<title>Sheet.179</title>
			<desc>εc</desc>
			<v:textBlock v:margins="rect(4,4,4,4)" v:tabSpace="42.5197"/>
			<v:textRect cx="11.1024" cy="251.21" width="22.21" height="14.7402"/>
			<g id="shadow179-106" v:groupContext="shadow" v:shadowOffsetX="2.44929E-016" v:shadowOffsetY="-4" v:shadowType="1"
					transform="matrix(1,0,0,1,0,4)" class="st1">
				<rect x="0" y="243.84" width="22.2047" height="14.7402" class="st17"/>
				<text x="5.99" y="255.41" class="st18" v:langID="1033"><v:paragraph v:horizAlign="1"/><v:tabList/>ε<tspan
							dy="-0.284em" class="st25" v:baseFontSize="14">c</tspan></text>			</g>
			<rect x="0" y="243.84" width="22.2047" height="14.7402" class="st21"/>
			<text x="5.99" y="255.41" class="st22" v:langID="1033"><v:paragraph v:horizAlign="1"/><v:tabList/>ε<tspan dy="-0.284em"
						class="st25" v:baseFontSize="14">c</tspan></text>		</g>
		<g id="shape180-115" v:mID="180" v:groupContext="shape" transform="translate(170.352,-7.58979)">
			<title>Sheet.180</title>
			<desc>εc1</desc>
			<v:textBlock v:margins="rect(4,4,4,4)" v:tabSpace="42.5197"/>
			<v:textRect cx="13.8898" cy="251.21" width="27.78" height="14.7402"/>
			<g id="shadow180-116" v:groupContext="shadow" v:shadowOffsetX="2.44929E-016" v:shadowOffsetY="-4" v:shadowType="1"
					transform="matrix(1,0,0,1,0,4)" class="st1">
				<rect x="0" y="243.84" width="27.7795" height="14.7402" class="st17"/>
				<text x="6.47" y="255.41" class="st18" v:langID="1033"><v:paragraph v:horizAlign="1"/><v:tabList/>ε<tspan
							dy="-0.284em" class="st25" v:baseFontSize="14">c</tspan><tspan class="st25" v:baseFontSize="14">1</tspan></text>			</g>
			<rect x="0" y="243.84" width="27.7795" height="14.7402" class="st21"/>
			<text x="6.47" y="255.41" class="st22" v:langID="1033"><v:paragraph v:horizAlign="1"/><v:tabList/>ε<tspan dy="-0.284em"
						class="st25" v:baseFontSize="14">c</tspan><tspan class="st25" v:baseFontSize="14">1</tspan></text>		</g>
		<g id="shape181-127" v:mID="181" v:groupContext="shape" transform="translate(221.73,-7.58979)">
			<title>Sheet.181</title>
			<desc>εcu1</desc>
			<v:textBlock v:margins="rect(4,4,4,4)" v:tabSpace="42.5197"/>
			<v:textRect cx="13.8898" cy="251.21" width="27.78" height="14.7402"/>
			<g id="shadow181-128" v:groupContext="shadow" v:shadowOffsetX="2.44929E-016" v:shadowOffsetY="-4" v:shadowType="1"
					transform="matrix(1,0,0,1,0,4)" class="st1">
				<rect x="0" y="243.84" width="27.7795" height="14.7402" class="st17"/>
				<text x="4.08" y="255.41" class="st18" v:langID="1033"><v:paragraph v:horizAlign="1"/><v:tabList/>ε<tspan
							dy="-0.284em" class="st25" v:baseFontSize="14">cu</tspan><tspan class="st25" v:baseFontSize="14">1</tspan></text>			</g>
			<rect x="0" y="243.84" width="27.7795" height="14.7402" class="st21"/>
			<text x="4.08" y="255.41" class="st22" v:langID="1033"><v:paragraph v:horizAlign="1"/><v:tabList/>ε<tspan dy="-0.284em"
						class="st25" v:baseFontSize="14">cu</tspan><tspan class="st25" v:baseFontSize="14">1</tspan></text>		</g>
		<g id="shape182-139" v:mID="182" v:groupContext="shape" transform="translate(19.1443,-232.276)">
			<title>Sheet.182</title>
			<desc>σc</desc>
			<v:textBlock v:margins="rect(4,4,4,4)" v:tabSpace="42.5197"/>
			<v:textRect cx="14.7559" cy="249.084" width="29.52" height="18.9921"/>
			<g id="shadow182-140" v:groupContext="shadow" v:shadowOffsetX="2.44929E-016" v:shadowOffsetY="-4" v:shadowType="1"
					transform="matrix(1,0,0,1,0,4)" class="st1">
				<rect x="0" y="239.588" width="29.5118" height="18.9921" class="st17"/>
				<text x="9.11" y="253.28" class="st18" v:langID="1033"><v:paragraph v:horizAlign="1"/><v:tabList/>σ<tspan
							dy="-0.284em" class="st25" v:baseFontSize="14">c</tspan></text>			</g>
			<rect x="0" y="239.588" width="29.5118" height="18.9921" class="st21"/>
			<text x="9.11" y="253.28" class="st22" v:langID="1033"><v:paragraph v:horizAlign="1"/><v:tabList/>σ<tspan dy="-0.284em"
						class="st25" v:baseFontSize="14">c</tspan></text>		</g>
		<g id="shape183-149" v:mID="183" v:groupContext="shape" transform="translate(72.7268,-119.227)">
			<title>Sheet.183</title>
			<g id="shadow183-150" v:groupContext="shadow" v:shadowOffsetX="2.44929E-016" v:shadowOffsetY="-4" v:shadowType="1"
					transform="matrix(1,0,0,1,0,4)" class="st1">
				<ellipse cx="2.69291" cy="255.887" rx="2.69291" ry="2.69291" class="st26"/>
			</g>
			<ellipse cx="2.69291" cy="255.887" rx="2.69291" ry="2.69291" class="st27"/>
		</g>
	</g>
</svg>
